<svg xmlns="http://www.w3.org/2000/svg" version="1" viewBox="0 0 50 50"><path d="M36.822 25.198c-.7 5.96-2.605 10.905-4.094 14.02.94.595 2.264 1.83 2.588 3.063.72 2.74-1.21 5.243.605 6.05 1.33.592 4.235-1.21 6.452-11.49 1.77-8.21-3.392-10.892-5.55-11.642zM17.943 39.162c-1.488-3.126-3.383-8.06-4.072-14.003-2.08.69-7.468 3.322-5.665 11.678 2.217 10.282 5.123 12.083 6.45 11.492 1.817-.808-.112-3.312.606-6.05.337-1.274 1.74-2.55 2.683-3.118zM23.593 43c.15 3 .96 5.217 1.94 5.217.982 0 1.793-2.217 1.943-5.217h-3.883zM25.43 1h-.165c-13.44 7-10.482 23.928-10.482 23.928C15.925 35.008 20.697 42 20.697 42h9.305s4.77-6.99 5.914-17.072c0 0 2.957-16.928-10.485-23.928zm-.075 21.688c-1.172 0-2.12-.95-2.12-2.122s.948-2.12 2.12-2.12c1.172 0 2.122.948 2.122 2.12s-.95 2.122-2.122 2.122zm-.066-8.08c-1.98 0-3.587-1.605-3.587-3.585s1.605-3.585 3.586-3.585c1.98 0 3.585 1.605 3.585 3.585s-1.605 3.585-3.586 3.585z"/></svg>