<svg xmlns="http://www.w3.org/2000/svg" xmlns:xlink="http://www.w3.org/1999/xlink" version="1.0" x="0px" y="0px" viewBox="0 0 50 50" enable-background="new 0 0 50 50" xml:space="preserve"><g><path fill="#000000" d="M36.822,25.198c-0.699,5.959-2.605,10.905-4.094,14.021c0.941,0.594,2.264,1.828,2.588,3.062   c0.719,2.738-1.209,5.242,0.605,6.05c1.328,0.591,4.234-1.21,6.451-11.492C44.143,28.631,38.98,25.948,36.822,25.198z"/><path fill="#000000" d="M17.943,39.162c-1.488-3.126-3.383-8.061-4.072-14.003c-2.082,0.692-7.469,3.323-5.666,11.679   c2.217,10.282,5.123,12.083,6.451,11.492c1.816-0.808-0.113-3.312,0.605-6.05C15.597,41.006,17,39.729,17.943,39.162z"/><path fill="#000000" d="M23.593,43c0.15,3,0.961,5.217,1.941,5.217c0.981,0,1.792-2.217,1.942-5.217H23.593z"/><path fill="#000000" d="M25.431,1h-0.166C11.826,8,14.783,24.928,14.783,24.928C15.925,35.009,20.697,42,20.697,42h9.305   c0,0,4.771-6.991,5.914-17.072C35.916,24.928,38.873,8,25.431,1z M25.355,22.688c-1.172,0-2.121-0.95-2.121-2.122   s0.949-2.121,2.121-2.121c1.172,0,2.122,0.949,2.122,2.121S26.527,22.688,25.355,22.688z M25.289,14.608   c-1.98,0-3.586-1.605-3.586-3.585s1.605-3.585,3.586-3.585c1.981,0,3.586,1.605,3.586,3.585S27.27,14.608,25.289,14.608z"/></g></svg>